<?xml version="1.0" encoding="UTF-8"?>
<svg width="1054px" height="306px" viewBox="0 0 1054 306" version="1.1" xmlns="http://www.w3.org/2000/svg" xmlns:xlink="http://www.w3.org/1999/xlink">
    <!-- Generator: Sketch 51 (57462) - http://www.bohemiancoding.com/sketch -->
    <title>80s-car</title>
    <desc>Created with Sketch.</desc>
    <defs></defs>
    <g id="Page-1" stroke="none" stroke-width="1" fill="none" fill-rule="evenodd">
        <path d="M311,2 C311,2 311,2 311,2 C325.724591,0.247072459 353.057925,0.247072459 393,2 L570.297512,2 C571.410535,2 572.501619,2.30959302 573.448771,2.89416324 L698.551229,80.1058368 C699.498381,80.690407 700.589465,81 701.702488,81 L717.698345,81 C717.899321,81 718.100171,81.0100979 718.300134,81.0302554 L965.495253,105.949118 C965.831152,105.982979 966.163593,106.045129 966.489038,106.134907 L994.256677,113.794945 C994.750196,113.931089 995.224262,114.129836 995.66732,114.386343 L1012.94066,124.386697 C1013.63969,124.791398 1014.24981,125.333073 1014.73444,125.979255 L1031.65017,148.53356 C1031.88284,148.84379 1032.08489,149.175845 1032.25348,149.525066 L1045.46823,176.898487 C1045.81914,177.625354 1046.31309,178.27395 1046.92052,178.805452 L1051.95103,183.207149 C1053.25312,184.346478 1054,185.992434 1054,187.722609 L1054,208.735839 C1054,210.771101 1052.96825,212.667601 1051.25951,213.77326 L1037.53367,222.654687 C1037.17888,222.884253 1036.84934,223.150658 1036.55053,223.449467 L1024.59711,235.402887 C1023.56763,236.432365 1022.19896,237.052405 1020.74616,237.147448 L919.607115,243.764021 C917.388168,243.909185 915.270909,242.815228 914.105479,240.921404 L910.620487,235.258292 C909.300406,233.11316 906.491296,232.444324 904.346164,233.764405 C904.22723,233.837595 904.11172,233.91621 904,234 L901.475762,235.893179 C900.514132,236.614401 899.358043,237.030159 898.15733,237.086568 L751.140707,243.99339 C751.046915,243.997796 750.953033,244 750.859138,244 L738.070106,244 C737.362287,244 736.660051,244.125244 735.995874,244.369941 L719.004126,250.630059 C718.339949,250.874756 717.637713,251 716.929894,251 L341.611545,251 C340.555889,251 339.518919,251.278521 338.605327,251.807442 L322.394673,261.192558 C321.481081,261.721479 320.444111,262 319.388455,262 L279.263491,262 C279.087915,262 278.912424,261.992293 278.737523,261.976902 L157.486526,251.306814 C155.513415,251.133181 154,249.480736 154,247.5 L154,247.293675 C154,245.242273 152.951942,243.333054 151.221253,242.231706 L145.050557,238.3049 C143.735423,237.467997 142.146203,237.175782 140.619386,237.490126 L109.974317,243.799405 C109.329175,243.932229 108.666566,243.957916 108.013078,243.875437 L10.8741642,231.615186 C8.0392633,231.257383 5.85000283,228.950039 5.64148286,226.100266 L0.0534223238,149.730105 C0.0179390074,149.245166 0.0415349999,148.757713 0.123691136,148.278468 L5.77541034,115.310106 C5.92334344,114.447163 5.88062725,113.5623 5.65025974,112.717619 L0.635684816,94.3308443 C0.227807176,92.835293 0.414590404,91.2399176 1.15689431,89.8790271 L4.29442515,84.1268872 C5.34582417,82.1993224 7.36613327,81 9.56179859,81 L44.5835921,81 C45.5150627,81 46.4337411,81.2168706 47.2668737,81.6334369 L66.7331263,91.3665631 C67.5662589,91.7831294 68.4849373,92 69.4164079,92 L128.446089,92.0000052 C128.814123,92.0000052 129.181376,91.9661432 129.543205,91.8988472 C168.609643,84.6329491 198.428575,81 219,81 C235.147445,81 248.446014,67.9765668 258.895707,41.9297005 L258.895702,41.9296982 C267.656033,20.0937302 287.637265,4.78127798 311,2 Z" id="car" fill="#4A4A4A" fill-rule="nonzero"></path>
        <path d="M396,27 L396,83 C396,87.418278 399.581722,91 404,91 L562.5,91 C566.642136,91 570,87.6421356 570,83.5 L570,81.2321246 C570,78.0537419 571.881551,75.1768216 574.793449,73.9028659 L582.973119,70.3242606 C584.911635,69.4761597 587.107191,69.4305744 589.079239,70.1974819 L601.448265,75.0076584 C603.102329,75.6509056 604.495543,76.8259045 605.408638,78.3477298 L610.66958,87.115966 C612.115366,89.5256093 614.71942,91 617.529523,91 L619.5,91 C623.089851,91 626,88.0898509 626,84.5 L626,79.4822691 C626,77.2613943 625.076793,75.1404625 623.451348,73.6271173 L597.311195,49.2897333 C597.103878,49.096714 596.886456,48.9148418 596.659847,48.7448851 L559.133333,20.6 C557.748564,19.561423 556.064295,19 554.333333,19 L404,19 C399.581722,19 396,22.581722 396,27 Z" id="window-1" fill="#FFFFFF" fill-rule="nonzero"></path>
        <path d="M371,22 L371,87 C371,89.7614237 368.761424,92 366,92 L321.014065,92 C318.252641,92 316.014065,89.7614237 316.014065,87 C316.014065,86.6937476 316.042202,86.3881429 316.098121,86.087039 L327.293259,25.8055277 C327.709365,23.5649578 329.587857,21.8892193 331.861212,21.7306132 L369.503637,19.1043974 C370.274407,19.0506227 370.942833,19.6318623 370.996608,20.4026324 C370.998869,20.435039 371,20.4675146 371,20.5 Z" id="window-2" fill="#FFFFFF" fill-rule="nonzero"></path>
        <path d="M278.140398,17.3355257 L250.023353,59.9645932 C250.007786,59.9881951 249.99172,60.0114642 249.975166,60.0343848 L237.200866,77.7218775 C237.067926,77.9059483 236.904613,78.0660374 236.717928,78.1952808 L224.513667,86.6443844 C224.179192,86.8759441 223.782056,87 223.375247,87 L213.067491,87 C213.02251,87 212.977542,87.0015175 212.932663,87.0045498 L75.1662481,96.3130913 C74.0641914,96.3875546 73.1104335,95.5545256 73.0359702,94.4524689 C72.9811889,93.6417054 73.422413,92.8783937 74.1523147,92.5212077 L111.938695,74.0300002 C111.979553,74.0100059 112.021081,73.9914113 112.063207,73.9742489 L192.954224,41.0186497 C192.984737,41.0062185 193.015552,40.9945431 193.046642,40.9836344 L249.919839,21.0281268 C249.973255,21.0093841 250.027444,20.9929177 250.082258,20.9787722 L275.971097,14.2977815 C277.040626,14.0217739 278.1314,14.6650505 278.407407,15.7345801 C278.548672,16.2819816 278.451669,16.8635991 278.140398,17.3355257 Z" id="Path-2" fill="#FFFFFF" fill-rule="nonzero"></path>
        <ellipse id="Oval" fill="#4A4A4A" fill-rule="nonzero" cx="230" cy="236.5" rx="77" ry="69.5"></ellipse>
        <ellipse id="Oval-Copy" fill="#4A4A4A" fill-rule="nonzero" cx="821" cy="229.5" rx="77" ry="69.5"></ellipse>
    </g>
</svg>