<?xml version="1.0" encoding="UTF-8"?>
<svg width="603px" height="333px" viewBox="0 0 603 333" version="1.1" xmlns="http://www.w3.org/2000/svg" xmlns:xlink="http://www.w3.org/1999/xlink">
    <!-- Generator: Sketch 51 (57462) - http://www.bohemiancoding.com/sketch -->
    <title>model-t</title>
    <desc>Created with Sketch.</desc>
    <defs></defs>
    <g id="Page-1" stroke="none" stroke-width="1" fill="none" fill-rule="evenodd">
        <g id="wheel" transform="translate(14.000000, 199.000000)" fill-rule="nonzero" stroke="#4A4A4A">
            <ellipse id="Oval" stroke-width="10" cx="64" cy="64.5" rx="64" ry="64.5"></ellipse>
            <path d="M64.25,126 L64.25,4.5" id="Path-2-Copy" stroke-width="4"></path>
            <path d="M106.5,106.5 L21.5,19.5" id="Line-2" stroke-width="4" stroke-linecap="square"></path>
            <path d="M3.5,63.2083333 L128.5,63.2083333" id="Line-Copy" stroke-width="4" stroke-linecap="square"></path>
            <path d="M111.5,21.5 L15.5,106.5" id="Line" stroke-width="4" stroke-linecap="square"></path>
        </g>
        <g id="wheel-2" transform="translate(461.000000, 192.000000)" fill-rule="nonzero" stroke="#4A4A4A">
            <ellipse id="Oval" stroke-width="10" cx="64" cy="64.5" rx="64" ry="64.5"></ellipse>
            <path d="M64.25,126 L64.25,4.5" id="Path-2-Copy" stroke-width="4"></path>
            <path d="M106.5,106.5 L21.5,19.5" id="Line-2" stroke-width="4" stroke-linecap="square"></path>
            <path d="M3.5,63.2083333 L128.5,63.2083333" id="Line-Copy" stroke-width="4" stroke-linecap="square"></path>
            <path d="M111.5,21.5 L15.5,106.5" id="Line" stroke-width="4" stroke-linecap="square"></path>
        </g>
        <path d="M1.4837564,211.758122 L42.8692078,191.065396 C42.9559414,191.022029 43.0485216,190.991509 43.1440411,190.974793 L82.7737497,184.039594 C82.9226447,184.013537 83.0755094,184.021574 83.2208511,184.0631 L117.750844,193.928813 C117.91425,193.9755 118.063061,194.063061 118.18323,194.18323 L149.90016,225.90016 C149.966391,225.966391 150.022989,226.0416 150.068294,226.12358 L170.744183,263.537093 C170.904225,263.826693 171.197156,264.018379 171.526607,264.04909 L229.953691,269.495683 C229.984547,269.498559 230.01552,269.5 230.046509,269.5 L443.08435,269.5 C443.602571,269.5 444.034932,269.104109 444.08048,268.587894 L446.983024,235.692398 C446.994238,235.565307 447.029668,235.441536 447.087404,235.327762 L463.910017,202.17732 C463.969424,202.060253 464.051301,201.956028 464.150975,201.870593 L484.779662,184.188861 C484.923585,184.065498 485.099606,183.985583 485.287209,183.95843 L522.885815,178.516527 C522.961687,178.505545 523.038569,178.503325 523.114948,178.509909 L551.783237,180.981314 C551.926075,180.993627 552.064595,181.03651 552.189406,181.107055 L574.807109,193.890975 C574.934162,193.962787 575.043957,194.06154 575.128785,194.180299 L594.983044,221.976262 C594.994346,221.992084 595.005183,222.008232 595.015543,222.024687 L600.359433,230.512041 C600.653698,230.979402 601.271118,231.119725 601.738479,230.82546 C602.098256,230.598934 602.275469,230.169688 602.180278,229.75533 L595.028896,198.625784 C595.009712,198.542274 594.979873,198.461577 594.940115,198.385674 L578.558802,167.112259 C578.519757,167.037718 578.490276,166.958546 578.471059,166.876621 L569.035141,126.649812 C569.011851,126.550521 569.003886,126.448253 569.011524,126.346554 L578.417226,1.10219953 C578.458586,0.55146562 578.045656,0.0714791045 577.494922,0.0301196409 C577.461691,0.0276240327 577.428356,0.0267910966 577.395042,0.0276239506 L238.966704,8.48833241 C238.670892,8.4957277 238.393545,8.63375175 238.209272,8.86527425 L219.468246,32.4116912 C219.190908,32.7601415 219.17742,33.2500004 219.435163,33.613184 L229.899796,48.3588038 C229.966105,48.4522395 230.047979,48.533585 230.141841,48.5992887 L234.85543,51.8988008 C234.951071,51.9657497 235.03425,52.048929 235.101199,52.1445703 L238.319232,56.7417599 C238.43689,56.9098434 238.5,57.1100501 238.5,57.3152222 L238.5,116.5 C238.5,117.052285 238.052285,117.5 237.5,117.5 L225.060835,117.5 C224.712468,117.5 224.389208,117.681295 224.207553,117.97855 L219.292447,126.02145 C219.110792,126.318705 218.787532,126.5 218.439165,126.5 L123.844787,126.5 C123.621382,126.5 123.404411,126.425191 123.228479,126.287505 L113.616308,118.764937 C113.181381,118.424559 112.552873,118.501207 112.212495,118.936134 C112.074809,119.112066 112,119.329037 112,119.552442 L112,126.166667 C112,126.383037 111.929822,126.59357 111.8,126.766667 L95.6145363,148.347285 C95.538862,148.448184 95.4829579,148.562488 95.4497725,148.684167 L91.1809515,164.336511 C91.0719605,164.736145 90.7278654,165.027213 90.3156914,165.068431 L71.0724219,166.992758 C71.0242044,166.99758 70.9764012,167.0059 70.92939,167.017652 L39.24402,174.938995 C39.0838348,174.979041 38.9360582,175.058129 38.8138828,175.169197 L0.363870011,210.123755 C-0.0447876071,210.495261 -0.0749041939,211.12771 0.296602732,211.536367 C0.597968715,211.86787 1.08304162,211.958479 1.4837564,211.758122 Z" id="body" fill="#4A4A4A" fill-rule="nonzero"></path>
        <path d="M270.5,43.5 L270.5,94.5 C270.5,97.2614237 272.738576,99.5 275.5,99.5 L285.25,99.5 C287.044925,99.5 288.5,98.0449254 288.5,96.25 L288.5,93.9066729 C288.5,93.3071132 288.392165,92.712441 288.181646,92.1510557 L284,81 C283.237024,78.9653976 284.267881,76.6975123 286.302483,75.9345364 C287.524152,75.4764106 288.893472,75.6537094 289.958174,76.4078735 L302.847933,85.5381195 C303.279904,85.8440984 303.660543,86.2167337 303.975633,86.6421042 L312.000843,97.4761378 C312.94384,98.7491841 314.434365,99.5 316.018629,99.5 L349.5,99.5 C352.261424,99.5 354.5,97.2614237 354.5,94.5 L354.5,43.5 C354.5,40.7385763 352.261424,38.5 349.5,38.5 L275.5,38.5 C272.738576,38.5 270.5,40.7385763 270.5,43.5 Z" id="window-1" fill="#FFFFFF" fill-rule="nonzero"></path>
        <path d="M379,37.5 L379,96.5 C379,98.709139 380.790861,100.5 383,100.5 L458.444065,100.5 C459.444832,100.5 460.409244,100.124859 461.146964,99.4486166 L470.702899,90.6890097 C471.529415,89.93137 472,88.8616187 472,87.7403931 L472,37.5 C472,35.290861 470.209139,33.5 468,33.5 L383,33.5 C380.790861,33.5 379,35.290861 379,37.5 Z" id="window-2" fill="#FFFFFF" fill-rule="nonzero"></path>
    </g>
</svg>