<?xml version="1.0" encoding="UTF-8"?>
<svg width="395px" height="168px" viewBox="0 0 395 168" version="1.1" xmlns="http://www.w3.org/2000/svg" xmlns:xlink="http://www.w3.org/1999/xlink">
    <!-- Generator: Sketch 51 (57462) - http://www.bohemiancoding.com/sketch -->
    <title>horse-carriage</title>
    <desc>Created with Sketch.</desc>
    <defs></defs>
    <g id="Page-1" stroke="none" stroke-width="1" fill="none" fill-rule="evenodd">
        <g id="wheel-2" transform="translate(220.000000, 102.000000)" fill-rule="nonzero" stroke="#4A4A4A">
            <ellipse id="Oval" stroke-width="6" cx="27" cy="27.5" rx="27" ry="27.5"></ellipse>
            <path d="M27.8333333,54 L27.8333333,2.21311475" id="Path-2-Copy" stroke-width="2"></path>
            <path d="M45.7848837,46.7840909 L9.21511628,9.21590909" id="Line-2" stroke-width="2" stroke-linecap="square"></path>
            <path d="M2.21031746,27.2083333 L54.7896825,27.2083333" id="Line-Copy" stroke-width="2" stroke-linecap="square"></path>
            <path d="M47.7886598,9.21511628 L7.21134021,45.7848837" id="Line" stroke-width="2" stroke-linecap="square"></path>
        </g>
        <g id="wheel-2-copy" transform="translate(306.000000, 80.000000)" fill-rule="nonzero" stroke="#4A4A4A">
            <ellipse id="Oval" stroke-width="6" cx="39.5" cy="40" rx="39.5" ry="40"></ellipse>
            <path d="M41.25,79 L41.25,3.31147541" id="Path-2-Copy" stroke-width="2"></path>
            <path d="M65.6918605,67.6875 L13.3081395,13.3125" id="Line-2" stroke-width="2" stroke-linecap="square"></path>
            <path d="M3.30555556,39.4166667 L79.6944444,39.4166667" id="Line-Copy" stroke-width="2" stroke-linecap="square"></path>
            <path d="M68.6907216,13.3139535 L9.30927835,66.6860465" id="Line" stroke-width="2" stroke-linecap="square"></path>
        </g>
        <path d="M14.5,51 L14.5,51 C15.4192991,52.8385982 17.2984867,54 19.354102,54 L27.2551372,54 C27.750865,54 28.2457453,54.0409575 28.7347281,54.1224547 L45.5508424,56.9251404 C45.8500894,56.9750149 46.1466233,57.0399882 46.4393082,57.1198113 L55.8022069,59.6733291 C56.5969724,59.8900834 57.3582155,60.2149293 58.064612,60.6387672 L66.0131385,65.4078831 C66.6683784,65.8010271 67.3710191,66.1091233 68.1041034,66.3247363 L82.7565843,70.6342895 C83.5812743,70.8768454 84.436461,71 85.2960813,71 L99.5395011,71 C100.50684,71 101.467853,70.8440491 102.385551,70.5381497 L114.614449,66.4618503 C115.532147,66.1559509 116.49316,66 117.460499,66 L129.626502,66 C130.536897,66 131.442023,66.1381321 132.310977,66.4096802 L146.504049,70.8450152 C146.834408,70.9482524 147.158537,71.0704607 147.47482,71.2110311 L153.304523,73.8020102 C155.055681,74.5803026 156.512703,75.8972294 157.463465,77.5610637 L163.505369,88.134396 C163.834118,88.7097058 164.098327,89.3195615 164.293192,89.9528738 L167.602011,100.706536 C167.865854,101.564025 168,102.456146 168,103.353309 L168,112.64244 C168,114.188072 168.398057,115.707657 169.15582,117.054791 L175.84418,128.945209 C176.601943,130.292343 177,131.811928 177,133.35756 L177,143 C177,144.104569 176.104569,145 175,145 L175,145 C173.755827,145 172.599413,144.35906 171.940002,143.304003 L168.754176,138.206681 C168.254495,137.407193 167.883539,136.534156 167.654878,135.619511 L164.337358,122.349432 C164.11378,121.455119 163.754132,120.600465 163.271,119.815375 L156.704379,109.144616 C156.237382,108.385746 155.885669,107.561732 155.660749,106.699537 L154.027283,100.437917 C153.685638,99.1282803 152.347011,98.3435674 151.037374,98.6852118 C150.650707,98.7860814 150.294572,98.9799755 150,99.25 L150,99.25 C148.146032,100.949471 147.349583,103.514858 147.915112,105.965485 L149.630483,113.398761 C149.874808,114.457501 150.308833,115.463249 150.911551,116.367327 L155.541646,123.31247 C155.846574,123.769861 156.108955,124.254228 156.325499,124.759498 L158.715926,130.337162 C158.905006,130.778347 159.058488,131.233951 159.174904,131.699615 L163.731283,149.92513 C163.909754,150.639015 164,151.372094 164,152.107951 L164,155.050517 C164,156.335275 163.724935,157.605143 163.193298,158.774744 L160.241409,165.268901 C159.48539,166.932141 157.827001,168 156,168 L156,168 C154.734502,168 153.708612,166.974111 153.708612,165.708612 C153.708612,165.504949 153.735765,165.302195 153.789352,165.105709 L155.682874,158.162794 C155.893352,157.391043 156,156.594675 156,155.794737 L156,151.953463 C156,151.319595 155.933036,150.6875 155.800222,150.067701 L153.313353,138.462312 C153.105873,137.494075 152.74003,136.566716 152.230567,135.717612 L147.570036,127.95006 C147.191441,127.319068 146.73689,126.73689 146.216561,126.216561 L142.5,122.5 C141.470563,121.470563 139.801515,121.470563 138.772078,122.5 C138.277725,122.994353 138,123.66484 138,124.363961 L138,128.275019 C138,130.051844 137.474058,131.788913 136.488453,133.267321 L134.327032,136.509453 C134.109244,136.836134 133.870313,137.148214 133.611769,137.443692 L127.566981,144.352022 C127.189854,144.783023 126.854728,145.249037 126.566161,145.743724 L120.407649,156.301173 C120.13643,156.76612 119.907469,157.254462 119.723518,157.760325 L117.537844,163.77093 C116.614588,166.309882 114.201607,168 111.5,168 L109.5,168 C108.119288,168 107,166.880712 107,165.5 L107,165.5 C107,163.884639 107.566332,162.320401 108.600461,161.079447 L111.69222,157.369335 C111.897261,157.123287 112.089021,156.866469 112.266682,156.599978 L115.828056,151.257916 C115.942651,151.086023 116.051294,150.910235 116.153792,150.730865 L123.876061,137.216894 C123.958671,137.072326 124.037253,136.925493 124.111717,136.776565 L125.727246,133.545508 C126.555536,131.888928 126.852572,130.017144 126.577828,128.185522 L124.633711,115.224738 C124.242545,112.616965 122.46905,110.425894 120,109.5 L120,109.5 C117.514468,108.567925 114.72326,108.99302 112.627886,110.622755 L108.499592,113.833651 C107.510759,114.602743 106.372259,115.156935 105.156947,115.460763 L96.07487,117.731283 C95.3609846,117.909754 94.6279056,118 93.8920494,118 L87.5,118 C84.6117419,118 82.270346,120.341396 82.270346,123.229654 C82.270346,123.846596 82.3795102,124.458671 82.5927902,125.037573 L86.8649787,136.633514 C86.9549506,136.877723 87.0342873,137.12572 87.1027651,137.376805 L89.6828744,146.837206 C89.893352,147.608957 90,148.405325 90,149.205263 L90,160 C90,161.900912 89.1556572,163.703619 87.6953362,164.920553 L85.9205532,166.399539 C85.4237515,166.81354 84.6853998,166.746418 84.2713984,166.249616 C84.0960359,166.039181 84,165.773925 84,165.5 L84,153.724981 C84,151.948156 83.4740578,150.211087 82.4884526,148.732679 L80.6145804,145.921871 C80.2064008,145.309601 79.8748511,144.649583 79.6273559,143.956596 L75.7873605,133.204609 C75.2710437,131.758922 74.3935203,130.46933 73.2382247,129.458447 L67.6058119,124.530085 C67.2027418,124.177399 66.7689941,123.861396 66.3097322,123.585839 L64.5,122.5 C62.9612002,121.57672 61.0387998,121.57672 59.5,122.5 L58.883359,122.869985 C57.6459435,123.612434 56.605201,124.641548 55.8488959,125.870544 L49.5537926,136.100087 C49.1858611,136.697976 48.7492381,137.250762 48.2528288,137.747171 L47.3784925,138.621508 C46.4700315,139.529969 45.7665995,140.622401 45.3154909,141.825358 L43.155236,147.586037 C43.0518077,147.861846 42.9619823,148.142566 42.8860842,148.427184 L39.9149419,159.568968 C39.3270331,161.773626 37.9236954,163.67269 35.9888179,164.881989 L33.1199958,166.675003 C32.4710597,167.080588 31.6162015,166.883313 31.2106165,166.234377 C31.0729798,166.014158 31,165.759692 31,165.5 L31,164.226775 C31,163.412689 31.1104537,162.602367 31.3283388,161.81798 L35.9943456,145.020356 C35.9981152,145.006785 36.0018529,144.993206 36.0055588,144.979618 L38.6989601,135.103813 C38.898849,134.370887 39.1907321,133.666219 39.5676462,133.006619 L42.3840235,128.077959 C42.7927392,127.362706 43.1013186,126.594725 43.3011177,125.795529 L45.0045811,118.981676 C45.6368727,116.452509 45.1414051,113.773436 43.6463858,111.637694 L40.6269127,107.324161 C39.5679864,105.811409 39,104.009549 39,102.163 L39,99.2249807 C39,97.4481559 38.4740578,95.7110866 37.4884526,94.232679 L32.7602301,87.1403452 C30.0953762,83.1430643 24.7608264,81.9435042 20.6413157,84.4152106 L15.5998162,87.4401103 C13.913172,88.4520968 12.604494,89.9887649 11.8739878,91.8150305 L11.114172,93.7145699 C10.4412505,95.3968737 8.81189667,96.5 7,96.5 L7,96.5 C5.09178758,96.5 3.27465581,95.6839878 2.00690848,94.257772 L2,94.25 C0.762624706,92.8579528 0.362998546,90.9110044 0.951971638,89.1440851 L3.53814968,81.385551 C3.84404909,80.4678527 4,79.5068399 4,78.5395011 L4,68.7249807 C4,66.9481559 4.52594225,65.2110866 5.51154735,63.732679 L9.33144051,58.0028392 C9.77516623,57.3372507 10.128175,56.6154751 10.3811375,55.8565874 L11.9393398,51.1819805 C12.1819805,50.4540585 12.9687771,50.0606602 13.6966991,50.3033009 C14.0462596,50.419821 14.3352156,50.6704312 14.5,51 Z" id="horse" fill="#4A4A4A" fill-rule="nonzero"></path>
        <path d="M393.836669,6.88444102 L391.546705,9.9377269 C390.52935,11.2942003 389.839352,12.8675002 389.530603,14.534745 L385.075569,38.5919262 C385.025208,38.8638787 384.985121,39.1376338 384.955394,39.4126078 L381.210668,74.0513203 C381.07132,75.3402889 381.160936,76.643743 381.475378,77.9015124 L382.5,82 C382.853515,83.4140616 381.993773,84.8469659 380.579711,85.2004813 C379.919509,85.3655318 379.22107,85.2691828 378.630213,84.9315501 L364.847748,77.0558526 C363.601921,76.3439512 362.228846,75.8826709 360.805896,75.6980044 C357.220238,75.2326681 354.28494,75 352,75 C349.265073,75 344.93174,75.3333333 339,76 C334.310993,76.5799391 330.97766,77.2466058 329,78 C327.238537,78.6710334 324.137167,80.3310132 319.695887,82.9799396 L319.695885,82.9799357 C318.583006,83.6436941 317.596157,84.4988645 316.780847,85.5060119 L304.301901,100.921181 C302.213383,103.501116 299.071542,105 295.752208,105 L274.136342,104.999997 C273.609936,104.999997 273.08421,105.037784 272.563216,105.113066 C271.528902,105.262521 269.674497,104.891499 267,104 C264.295275,103.098425 260.154707,101.465505 254.578297,99.10124 L254.578298,99.1012374 C252.878077,98.3803843 251.023734,98.0991873 249.18624,98.2835729 C240.617004,99.1434637 234.554924,99.7156061 231,100 C227.067703,100.314584 225.73437,100.314584 227,100 C222.138003,102.353503 219.471337,103.353503 219,103 C219,103 219,103 219,103 L219,103 C214.856168,99.8921263 213.457408,94.3055235 215.647866,89.6116856 L221.957196,76.0917224 C221.985731,76.0305754 222.013703,75.9691672 222.041109,75.9075054 L227.3601,63.9397751 C227.669504,63.2436168 228.484673,62.9300902 229.180831,63.2394939 C229.678969,63.4608885 230,63.9548791 230,64.5 L230,67.0948752 C230,69.569308 231.099088,71.9159067 233,73.5 L235.54859,75.623825 C235.849316,75.8744297 236.163204,76.1088028 236.488916,76.3259441 L244.273321,81.5155473 C246.662542,83.1083613 249.579893,83.7037701 252.402197,83.1745881 L259.139196,81.9114008 C262.230694,81.331745 264.926164,79.4563937 266.544444,76.7592601 L271.432422,68.6126297 C272.458164,66.9030603 273,64.9468598 273,62.9531764 L273,62 C273,59.790861 274.790861,58 277,58 L297.636594,58 C299.777503,58 301.817808,58.9086751 303.25,60.5 L303.25,60.5 C304.70159,62.1128776 306.683893,63.1511353 308.83633,63.4259144 L327.442443,65.801163 C328.475578,65.9330525 329.522208,65.917546 330.550982,65.755108 L344.203834,63.5993946 C346.661762,63.2113007 348.915483,62.0012914 350.596942,60.1669729 L357.459559,52.6804814 C358.475723,51.5719384 359.253796,50.2668103 359.74571,48.8457267 L367.394847,26.7482203 C367.795469,25.590867 368,24.3747347 368,23.1500041 L368,15.7046999 C368,11.0791291 370.893745,6.947729 375.240826,5.36697225 L386.611527,1.23217214 C388.741936,0.457477698 391.113832,0.74255485 393,2 L393,2 C394.567362,3.0449078 394.990894,5.16257063 393.945986,6.72993233 C393.910984,6.78243653 393.874531,6.83395926 393.836669,6.88444102 Z" id="carriage" fill="#4A4A4A" fill-rule="nonzero"></path>
        <path d="M119,84 C106.423668,85.8242183 149.423668,101.157552 248,130 C149.423668,101.157552 106.423668,85.8242183 119,84 Z" id="Path-2" stroke="#4A4A4A" stroke-width="2" fill-rule="nonzero"></path>
    </g>
</svg>